<?xml version="1.0" standalone="no"?>
<!DOCTYPE svg PUBLIC "-//W3C//DTD SVG 20010904//EN"
 "http://www.w3.org/TR/2001/REC-SVG-20010904/DTD/svg10.dtd">
<svg version="1.0" xmlns="http://www.w3.org/2000/svg"
 width="176.000000pt" height="176.000000pt" viewBox="0 0 176.000000 176.000000"
 preserveAspectRatio="xMidYMid meet">
<metadata>
Created by potrace 1.14, written by Peter Selinger 2001-2017
</metadata>
<g transform="translate(0.000000,176.000000) scale(0.100000,-0.100000)"
fill="#000000" stroke="none">
<path d="M330 1558 c-27 -28 -50 -79 -50 -110 1 -13 7 -40 14 -60 12 -35 12
-38 -10 -59 l-24 -23 6 47 c7 51 -19 141 -39 134 -24 -8 -50 -58 -54 -104 -3
-35 1 -58 16 -87 16 -30 18 -44 10 -60 -6 -13 1 -8 18 11 27 31 30 32 68 21
59 -16 106 -3 156 41 l43 38 -38 13 c-21 7 -56 10 -77 7 -42 -5 -51 6 -20 23
39 20 50 175 14 187 -6 2 -21 -6 -33 -19z"/>
<path d="M1336 1572 c-26 -43 -10 -164 25 -183 31 -16 21 -27 -20 -22 -21 3
-55 0 -76 -7 l-37 -12 24 -25 c53 -57 135 -78 190 -49 25 13 29 13 37 -2 23
-41 69 66 57 132 -7 34 -40 86 -56 86 -19 0 -43 -90 -36 -137 l6 -47 -24 23
c-24 22 -24 24 -9 67 19 55 11 100 -25 147 -26 35 -46 45 -56 29z"/>
<path d="M479 1537 c-39 -18 -58 -37 -80 -78 -25 -49 -25 -49 14 -49 52 0 119
39 144 85 13 22 23 43 23 48 0 11 -72 7 -101 -6z"/>
<path d="M1130 1543 c0 -5 11 -27 25 -50 l24 -43 -279 0 -280 0 -16 -25 c-14
-22 -16 -42 -10 -127 5 -81 3 -104 -8 -117 -11 -12 -17 -78 -25 -290 -5 -150
-12 -276 -15 -278 -19 -19 -26 22 -27 150 -3 241 -12 380 -27 385 -11 3 -13
-30 -8 -184 4 -104 9 -223 12 -264 l5 -75 -128 3 c-100 3 -131 7 -140 19 -6 8
-17 12 -22 8 -19 -11 -51 -83 -51 -115 0 -39 -16 -39 -25 0 -4 16 -10 29 -13
28 -4 -2 -18 5 -32 14 -14 9 -40 19 -58 23 l-33 7 3 -48 c3 -42 7 -50 36 -67
18 -11 53 -21 79 -22 42 -3 62 -16 63 -39 0 -5 -6 -4 -13 2 -29 24 -157 27
-157 3 0 -4 15 -23 34 -42 42 -44 100 -63 155 -50 26 6 43 5 50 -2 19 -19 12
-22 -52 -22 -40 0 -70 -5 -81 -14 -15 -13 -15 -15 1 -34 40 -44 140 -62 194
-33 22 11 28 11 48 -5 l23 -19 -35 0 c-42 0 -85 -15 -110 -37 -16 -16 -16 -17
9 -34 56 -36 131 -32 194 11 20 13 29 14 47 5 22 -11 21 -12 -17 -29 -21 -9
-51 -31 -66 -48 l-26 -32 24 -9 c12 -5 47 -7 76 -4 46 3 59 9 95 44 l42 41 74
-19 c40 -11 92 -29 114 -40 l41 -21 -25 -18 c-13 -10 -20 -22 -16 -26 4 -4 15
0 25 9 23 21 31 21 54 0 10 -9 21 -13 24 -10 4 4 -4 15 -17 26 l-24 20 48 21
c26 11 78 29 116 39 l70 18 28 -29 c15 -16 40 -36 55 -44 28 -15 100 -18 132
-5 17 7 16 9 -7 37 -14 17 -44 39 -66 49 -22 10 -38 22 -34 27 5 9 -14 6 -57
-10 -8 -3 -3 8 12 26 26 31 48 88 48 124 0 15 -4 16 -32 6 -18 -6 -43 -18 -56
-26 -29 -19 -62 -82 -62 -120 0 -27 -4 -30 -52 -40 -53 -11 -109 -32 -140 -54
-13 -10 -23 -6 -54 17 -21 16 -47 29 -59 30 -16 0 -21 8 -23 42 -3 34 0 43 13
43 10 0 15 7 13 17 -2 10 -10 18 -18 18 -11 0 -16 -15 -20 -55 -3 -35 -9 -55
-17 -54 -7 1 -22 2 -33 2 -15 2 -20 9 -20 32 0 36 -35 109 -55 117 -9 3 -15
19 -15 39 l0 34 325 0 326 0 -7 -63 c-4 -41 -1 -76 8 -102 12 -37 16 -40 63
-49 78 -14 131 -11 165 11 l32 20 -32 23 c-19 14 -53 25 -81 28 -48 4 -48 5
-26 22 19 16 24 16 42 4 25 -18 118 -18 153 0 15 8 36 23 46 35 19 21 19 21
-20 37 -27 11 -52 14 -89 9 l-50 -6 20 20 c18 18 25 19 55 10 51 -16 111 3
155 48 41 42 43 49 13 57 -38 10 -77 7 -113 -8 -38 -16 -41 -15 -24 12 8 12
20 17 34 15 62 -12 155 48 171 111 l7 29 -51 -5 c-28 -3 -63 -13 -79 -23 -15
-10 -30 -19 -33 -19 -3 0 -13 -16 -22 -35 l-16 -36 -1 39 c-1 39 -43 126 -61
126 -5 0 -11 -8 -14 -17 -5 -15 -18 -18 -86 -18 l-80 0 5 145 c3 80 8 195 11
257 3 67 1 114 -5 117 -18 11 -21 -11 -26 -190 -9 -299 -14 -344 -35 -344 -16
0 -18 16 -24 198 -3 108 -10 222 -16 253 -5 30 -10 126 -10 213 0 147 1 158
18 151 9 -4 37 -10 61 -13 42 -5 43 -4 36 19 -12 40 -56 90 -91 105 -35 15
-104 19 -104 7z m325 -991 c0 -49 5 -65 28 -95 l28 -37 -27 -35 c-14 -19 -28
-35 -29 -35 -2 0 -2 26 -2 58 1 44 -4 66 -22 95 l-23 37 22 35 c12 19 22 35
23 35 1 0 2 -26 2 -58z m-1165 -37 c-26 -27 -40 -96 -29 -138 10 -37 -3 -34
-35 8 l-27 35 28 37 c23 29 28 47 28 89 l0 53 30 -29 29 -29 -24 -26z m130
-90 c0 -15 -6 -25 -14 -25 -8 0 -17 -7 -20 -16 -11 -29 -6 -99 9 -128 21 -39
20 -40 -26 -9 -32 21 -39 31 -34 47 17 53 22 101 15 127 -8 28 -8 29 31 29 35
0 39 -3 39 -25z m944 -162 c-24 -18 -28 -5 -19 55 l7 47 15 -44 c14 -42 14
-46 -3 -58z m-860 10 c4 -31 17 -61 36 -85 l30 -37 -42 16 -43 15 0 73 c0 82
9 90 19 18z m816 -39 c-18 -21 -24 -10 -8 15 7 12 14 17 16 11 2 -6 -2 -17 -8
-26z"/>
<path d="M84 1335 c-23 -55 -18 -97 19 -151 18 -27 31 -57 29 -66 -5 -25 -22
-22 -22 2 0 12 -6 33 -14 48 -19 36 -74 87 -83 78 -5 -4 -8 -36 -8 -71 0 -61
2 -66 40 -105 21 -22 43 -40 48 -40 4 0 15 16 23 35 12 31 19 35 49 35 71 0
139 50 160 118 6 20 3 22 -37 22 -26 0 -55 -8 -72 -19 -38 -25 -46 -20 -46 32
0 43 -39 117 -61 117 -5 0 -17 -16 -25 -35z"/>
<path d="M1570 1338 c-16 -21 -25 -50 -28 -85 -3 -29 -5 -53 -6 -53 -1 0 -19
9 -41 20 -38 19 -115 28 -115 13 1 -19 47 -88 72 -106 15 -11 49 -22 79 -25
46 -4 51 -3 46 12 -4 10 4 32 23 58 16 22 32 55 36 74 7 36 -14 115 -31 121
-6 2 -22 -11 -35 -29z"/>
<path d="M1655 1223 c-38 -39 -55 -76 -57 -128 -4 -72 15 -79 68 -23 40 43 44
51 44 97 0 52 -7 81 -20 81 -4 0 -20 -12 -35 -27z"/>
<path d="M198 1086 c-51 -18 -105 -66 -110 -96 -4 -24 -4 -24 -20 10 -8 19
-27 46 -42 59 l-26 24 0 -75 c0 -77 9 -96 53 -111 10 -4 17 -17 17 -32 0 -24
-1 -24 -35 13 l-34 37 -1 -68 c0 -65 1 -68 27 -78 67 -25 184 57 198 139 4 24
4 46 0 50 -12 12 -99 -43 -122 -77 l-23 -34 0 44 0 44 52 13 c58 13 103 50
124 99 25 57 14 65 -58 39z"/>
<path d="M1684 1056 c-25 -24 -44 -53 -44 -65 0 -11 -4 -21 -10 -21 -5 0 -10
9 -10 21 0 39 -86 98 -142 99 -43 0 -43 1 -24 -43 21 -49 66 -86 124 -99 l52
-13 0 -44 0 -44 -23 34 c-23 34 -110 89 -122 77 -4 -4 -4 -25 0 -48 9 -52 51
-101 111 -130 54 -25 90 -21 134 17 27 22 30 31 30 79 0 30 -2 54 -5 54 -17 0
-66 -33 -89 -60 l-26 -32 0 26 c0 18 7 29 23 35 40 16 85 76 92 125 13 87 -7
97 -71 32z"/>
<path d="M156 779 c-26 -26 -46 -56 -46 -68 0 -30 -16 -26 -63 15 l-42 35 -3
-57 c-2 -31 1 -61 7 -67 5 -5 30 -12 55 -14 36 -4 46 -10 46 -24 0 -25 78 46
96 88 15 35 17 87 5 118 -8 18 -12 16 -55 -26z"/>
<path d="M1496 804 c-22 -57 4 -133 62 -185 36 -32 41 -34 45 -18 4 14 14 19
37 19 35 0 64 13 98 43 16 15 22 32 22 64 0 42 -1 43 -27 37 -16 -3 -45 -19
-65 -35 l-37 -29 -4 23 c-3 15 -5 12 -6 -11 -1 -39 -16 -35 -24 6 -6 28 -46
75 -78 93 -12 6 -19 4 -23 -7z"/>
<path d="M954 227 c-3 -9 4 -25 16 -37 l21 -21 -3 32 c-3 35 -24 51 -34 26z"/>
<path d="M672 213 c2 -10 10 -18 18 -18 8 0 16 8 18 18 2 12 -3 17 -18 17 -15
0 -20 -5 -18 -17z"/>
<path d="M1002 213 c2 -10 10 -18 18 -18 8 0 16 8 18 18 2 12 -3 17 -18 17
-15 0 -20 -5 -18 -17z"/>
<path d="M744 179 c-3 -6 0 -17 8 -25 13 -13 16 -13 27 0 7 8 10 20 6 26 -8
13 -32 13 -41 -1z"/>
<path d="M924 179 c-3 -6 0 -17 8 -25 13 -13 16 -13 27 0 7 8 10 20 6 26 -8
13 -32 13 -41 -1z"/>
<path d="M614 65 c-7 -16 33 -65 54 -65 6 0 12 9 12 20 0 11 -7 20 -15 20 -8
0 -15 9 -15 20 0 23 -28 27 -36 5z"/>
<path d="M1024 67 c3 -10 6 -30 6 -43 0 -14 6 -24 14 -24 22 0 31 22 14 34 -8
6 -20 20 -27 31 -11 17 -12 17 -7 2z"/>
<path d="M1062 58 c2 -12 10 -23 18 -23 22 0 19 39 -3 43 -15 3 -18 -1 -15
-20z"/>
<path d="M694 49 c-9 -15 11 -33 30 -26 9 4 13 13 10 22 -7 17 -30 20 -40 4z"/>
<path d="M976 45 c-3 -9 1 -18 10 -22 19 -7 39 11 30 26 -10 16 -33 13 -40 -4z"/>
</g>
</svg>
